# xmcd
#
# Track frame offsets: 
#        150
#        17372
#        44417
#        57077
#        72284
#        96836
#        117110
#        142457
#        156219
#        171813
#        189076
#        202022
#
# Disc length: 2963 seconds
#
# Revision: 3
# Processed by: cddbd v1.5.2PL0 Copyright (c) Steve Scherf et al.
# Submitted via: ExactAudioCopy v0.99pb4
#
DISCID=a40b910c
DTITLE=Tim O'Brien - Cornbread Nation
DYEAR=2005
DGENRE=Bluegrass
TTITLE0=Hold On
TTITLE1=Moses
TTITLE2=Cornbread Nation
TTITLE3=The Foggy Foggy Dew
TTITLE4=Let's Go Huntin'
TTITLE5=Walkin' Boss
TTITLE6=House of the Risin' Sun
TTITLE7=Runnin' Out of Memory
TTITLE8=Busted
TTITLE9=California Blues
TTITLE10=Boat up the River
TTITLE11=When This World Comes to an End
EXTD=YEAR: 2005
EXTT0=
EXTT1=
EXTT2=
EXTT3=
EXTT4=
EXTT5=
EXTT6=
EXTT7=
EXTT8=
EXTT9=
EXTT10=
EXTT11=
PLAYORDER=
